<svg width="200" height="60" viewBox="0 0 200 60" fill="none" xmlns="http://www.w3.org/2000/svg">
<rect width="200" height="60" fill="#FF715B"/>
<path d="M37.3575 37V36.19H37.7355C38.1075 36.19 38.4195 36.118 38.6715 35.974C38.9355 35.83 39.0675 35.482 39.0675 34.93V26.146C39.0675 25.63 38.9355 25.306 38.6715 25.174C38.4075 25.03 38.0955 24.958 37.7355 24.958H37.3575V24.148H42.5415C44.1015 24.148 45.2535 24.484 45.9975 25.156C46.7415 25.828 47.1135 26.752 47.1135 27.928C47.1135 28.648 46.9515 29.32 46.6275 29.944C46.3155 30.556 45.7935 31.054 45.0615 31.438C44.3295 31.822 43.3575 32.014 42.1455 32.014H41.1555V35.02C41.1555 35.536 41.2875 35.86 41.5515 35.992C41.8275 36.124 42.1395 36.19 42.4875 36.19H43.2255V37H37.3575ZM41.1555 31.114H41.9655C42.9975 31.114 43.7355 30.88 44.1795 30.412C44.6355 29.932 44.8635 29.128 44.8635 28C44.8635 27.004 44.6655 26.266 44.2695 25.786C43.8735 25.306 43.1955 25.066 42.2355 25.066H41.1555V31.114ZM48.0186 37V36.19H48.2526C48.4926 36.19 48.7206 36.16 48.9366 36.1C49.1526 36.04 49.3266 35.926 49.4586 35.758C49.6026 35.578 49.6746 35.302 49.6746 34.93V25.318C49.6746 24.97 49.6026 24.712 49.4586 24.544C49.3266 24.376 49.1466 24.268 48.9186 24.22C48.7026 24.16 48.4806 24.13 48.2526 24.13H48.0186V23.32H51.6546V34.93C51.6546 35.302 51.7206 35.578 51.8526 35.758C51.9846 35.926 52.1586 36.04 52.3746 36.1C52.5906 36.16 52.8246 36.19 53.0766 36.19H53.2926V37H48.0186ZM57.2394 37.18C56.4354 37.18 55.7694 36.946 55.2414 36.478C54.7134 36.01 54.4494 35.278 54.4494 34.282C54.4494 33.334 54.7854 32.626 55.4574 32.158C56.1294 31.69 57.1554 31.432 58.5354 31.384L60.0114 31.33V30.286C60.0114 29.866 59.9754 29.494 59.9034 29.17C59.8434 28.834 59.7054 28.576 59.4894 28.396C59.2734 28.204 58.9434 28.108 58.4994 28.108C57.8754 28.108 57.4614 28.294 57.2574 28.666C57.0654 29.038 56.9694 29.506 56.9694 30.07C56.3814 30.07 55.9374 29.986 55.6374 29.818C55.3494 29.638 55.2054 29.338 55.2054 28.918C55.2054 28.498 55.3554 28.162 55.6554 27.91C55.9674 27.646 56.3754 27.454 56.8794 27.334C57.3834 27.214 57.9474 27.154 58.5714 27.154C59.7114 27.154 60.5634 27.388 61.1274 27.856C61.7034 28.312 61.9914 29.11 61.9914 30.25V34.894C61.9914 35.398 62.0754 35.74 62.2434 35.92C62.4114 36.1 62.6994 36.19 63.1074 36.19H63.1614V37H60.4794L60.1734 35.542H60.0114C59.7594 35.866 59.5134 36.154 59.2734 36.406C59.0334 36.646 58.7514 36.838 58.4274 36.982C58.1154 37.114 57.7194 37.18 57.2394 37.18ZM57.8154 36.01C58.4874 36.01 59.0214 35.788 59.4174 35.344C59.8134 34.9 60.0114 34.306 60.0114 33.562V32.14L58.9494 32.194C58.0254 32.23 57.3834 32.434 57.0234 32.806C56.6634 33.166 56.4834 33.688 56.4834 34.372C56.4834 35.464 56.9274 36.01 57.8154 36.01ZM64.3537 37V36.19H64.4617C64.8697 36.19 65.2117 36.118 65.4877 35.974C65.7757 35.818 65.9197 35.464 65.9197 34.912V29.368C65.9197 28.84 65.7817 28.51 65.5057 28.378C65.2417 28.234 64.9117 28.162 64.5157 28.162H64.4437V27.352H67.5937L67.8277 28.756H67.9177C68.2897 28.084 68.7037 27.652 69.1597 27.46C69.6157 27.256 70.1317 27.154 70.7077 27.154C71.6557 27.154 72.3937 27.436 72.9217 28C73.4497 28.552 73.7137 29.44 73.7137 30.664V34.894C73.7137 35.458 73.8277 35.818 74.0557 35.974C74.2957 36.118 74.6197 36.19 75.0277 36.19H75.1177V37H71.7337V30.862C71.7337 30.082 71.5957 29.482 71.3197 29.062C71.0557 28.63 70.5877 28.414 69.9157 28.414C69.4117 28.414 69.0097 28.552 68.7097 28.828C68.4217 29.092 68.2117 29.44 68.0797 29.872C67.9597 30.304 67.8997 30.778 67.8997 31.294V35.002C67.8997 35.518 68.0317 35.848 68.2957 35.992C68.5717 36.124 68.9077 36.19 69.3037 36.19H69.3757V37H64.3537ZM83.1661 37V36.19H83.7061C84.0781 36.19 84.3961 36.13 84.6601 36.01C84.9241 35.878 85.0561 35.548 85.0561 35.02V31.852L81.7261 25.912C81.5341 25.576 81.3541 25.336 81.1861 25.192C81.0181 25.036 80.7721 24.958 80.4481 24.958H80.2141V24.148H85.4701V24.958H84.8941C84.5581 24.958 84.3301 25.024 84.2101 25.156C84.0901 25.276 84.0301 25.426 84.0301 25.606C84.0301 25.762 84.0601 25.93 84.1201 26.11C84.1921 26.278 84.2641 26.428 84.3361 26.56L85.6681 29.044C85.8721 29.416 86.0461 29.776 86.1901 30.124C86.3341 30.46 86.4541 30.766 86.5501 31.042C86.6581 30.766 86.8081 30.448 87.0001 30.088C87.1921 29.716 87.3901 29.338 87.5941 28.954L88.7101 26.848C88.8301 26.632 88.9141 26.434 88.9621 26.254C89.0101 26.062 89.0341 25.9 89.0341 25.768C89.0341 25.228 88.6621 24.958 87.9181 24.958H87.4321V24.148H91.9141V24.958H91.6621C91.3981 24.958 91.1641 25.054 90.9601 25.246C90.7561 25.438 90.5041 25.81 90.2041 26.362L87.1621 31.87V34.948C87.1621 35.5 87.2941 35.848 87.5581 35.992C87.8221 36.124 88.1401 36.19 88.5121 36.19H89.0521V37H83.1661ZM95.8605 37.18C94.5285 37.18 93.4785 36.766 92.7105 35.938C91.9425 35.11 91.5585 33.85 91.5585 32.158C91.5585 30.466 91.9245 29.212 92.6565 28.396C93.3885 27.568 94.4745 27.154 95.9145 27.154C97.2465 27.154 98.2965 27.568 99.0645 28.396C99.8325 29.212 100.216 30.466 100.216 32.158C100.216 33.85 99.8445 35.11 99.1005 35.938C98.3685 36.766 97.2885 37.18 95.8605 37.18ZM95.8965 36.19C96.7365 36.19 97.3245 35.848 97.6605 35.164C98.0085 34.48 98.1825 33.478 98.1825 32.158C98.1825 30.826 98.0085 29.83 97.6605 29.17C97.3245 28.498 96.7305 28.162 95.8785 28.162C95.0265 28.162 94.4325 28.498 94.0965 29.17C93.7605 29.83 93.5925 30.826 93.5925 32.158C93.5925 33.478 93.7665 34.48 94.1145 35.164C94.4625 35.848 95.0565 36.19 95.8965 36.19ZM106.011 37.18C105.063 37.18 104.331 36.898 103.815 36.334C103.311 35.77 103.059 34.87 103.059 33.634V29.404C103.059 28.876 102.927 28.54 102.663 28.396C102.399 28.24 102.063 28.162 101.655 28.162H101.601V27.352H105.039V33.436C105.039 34.216 105.159 34.828 105.399 35.272C105.651 35.704 106.113 35.92 106.785 35.92C107.517 35.92 108.045 35.662 108.369 35.146C108.705 34.618 108.873 33.922 108.873 33.058V29.422C108.873 29.05 108.807 28.774 108.675 28.594C108.543 28.414 108.369 28.3 108.153 28.252C107.937 28.192 107.703 28.162 107.451 28.162H107.397V27.352H110.853V35.002C110.853 35.53 110.991 35.86 111.267 35.992C111.543 36.124 111.873 36.19 112.257 36.19H112.329V37H109.269L108.999 35.596H108.909C108.537 36.256 108.105 36.688 107.613 36.892C107.121 37.084 106.587 37.18 106.011 37.18ZM113.275 37V36.19H113.329C113.737 36.19 114.079 36.118 114.355 35.974C114.643 35.818 114.787 35.458 114.787 34.894V29.386C114.787 28.858 114.649 28.522 114.373 28.378C114.097 28.234 113.761 28.162 113.365 28.162H113.311V27.352H116.317L116.659 29.026H116.749C116.905 28.666 117.073 28.348 117.253 28.072C117.445 27.784 117.691 27.562 117.991 27.406C118.303 27.238 118.717 27.154 119.233 27.154C119.905 27.154 120.403 27.274 120.727 27.514C121.051 27.754 121.213 28.09 121.213 28.522C121.213 28.942 121.063 29.284 120.763 29.548C120.475 29.8 120.013 29.926 119.377 29.926C119.377 29.434 119.305 29.074 119.161 28.846C119.029 28.606 118.789 28.486 118.441 28.486C118.105 28.486 117.829 28.612 117.613 28.864C117.397 29.116 117.223 29.434 117.091 29.818C116.971 30.202 116.887 30.598 116.839 31.006C116.791 31.414 116.767 31.774 116.767 32.086V34.984C116.767 35.512 116.905 35.848 117.181 35.992C117.469 36.124 117.805 36.19 118.189 36.19H118.711V37H113.275ZM128.883 37V36.19H129.387C129.747 36.19 130.059 36.124 130.323 35.992C130.587 35.848 130.719 35.518 130.719 35.002V25.102H129.063C128.535 25.102 128.169 25.24 127.965 25.516C127.761 25.792 127.635 26.128 127.587 26.524L127.479 27.388H126.471L126.561 24.148H137.001L137.091 27.388H136.083L135.975 26.524C135.927 26.128 135.801 25.792 135.597 25.516C135.393 25.24 135.021 25.102 134.481 25.102H132.825V34.93C132.825 35.482 132.951 35.83 133.203 35.974C133.467 36.118 133.779 36.19 134.139 36.19H134.643V37H128.883ZM137.919 37V36.19H137.973C138.381 36.19 138.723 36.118 138.999 35.974C139.287 35.818 139.431 35.458 139.431 34.894V29.386C139.431 28.858 139.293 28.522 139.017 28.378C138.741 28.234 138.405 28.162 138.009 28.162H137.955V27.352H140.961L141.303 29.026H141.393C141.549 28.666 141.717 28.348 141.897 28.072C142.089 27.784 142.335 27.562 142.635 27.406C142.947 27.238 143.361 27.154 143.877 27.154C144.549 27.154 145.047 27.274 145.371 27.514C145.695 27.754 145.857 28.09 145.857 28.522C145.857 28.942 145.707 29.284 145.407 29.548C145.119 29.8 144.657 29.926 144.021 29.926C144.021 29.434 143.949 29.074 143.805 28.846C143.673 28.606 143.433 28.486 143.085 28.486C142.749 28.486 142.473 28.612 142.257 28.864C142.041 29.116 141.867 29.434 141.735 29.818C141.615 30.202 141.531 30.598 141.483 31.006C141.435 31.414 141.411 31.774 141.411 32.086V34.984C141.411 35.512 141.549 35.848 141.825 35.992C142.113 36.124 142.449 36.19 142.833 36.19H143.355V37H137.919ZM149.086 25.606C148.75 25.606 148.468 25.516 148.24 25.336C148.024 25.156 147.916 24.856 147.916 24.436C147.916 24.004 148.024 23.704 148.24 23.536C148.468 23.356 148.75 23.266 149.086 23.266C149.398 23.266 149.668 23.356 149.896 23.536C150.136 23.704 150.256 24.004 150.256 24.436C150.256 24.856 150.136 25.156 149.896 25.336C149.668 25.516 149.398 25.606 149.086 25.606ZM146.512 37V36.19H146.746C146.986 36.19 147.214 36.166 147.43 36.118C147.646 36.058 147.82 35.944 147.952 35.776C148.096 35.608 148.168 35.35 148.168 35.002V29.35C148.168 29.002 148.096 28.744 147.952 28.576C147.82 28.408 147.646 28.3 147.43 28.252C147.214 28.192 146.986 28.162 146.746 28.162H146.656V27.352H150.148V34.93C150.148 35.302 150.214 35.578 150.346 35.758C150.478 35.926 150.652 36.04 150.868 36.1C151.096 36.16 151.33 36.19 151.57 36.19H151.804V37H146.512ZM152.364 41.32V40.51H152.526C152.766 40.51 152.994 40.48 153.21 40.42C153.426 40.36 153.6 40.24 153.732 40.06C153.876 39.892 153.948 39.622 153.948 39.25V29.404C153.948 28.864 153.804 28.522 153.516 28.378C153.24 28.234 152.916 28.162 152.544 28.162H152.328V27.352H155.586L155.802 28.918H155.874C156.138 28.39 156.486 27.97 156.918 27.658C157.362 27.334 157.932 27.172 158.628 27.172C159.828 27.172 160.74 27.574 161.364 28.378C162 29.17 162.318 30.436 162.318 32.176C162.318 33.916 162 35.188 161.364 35.992C160.74 36.796 159.84 37.198 158.664 37.198C157.968 37.198 157.398 37.054 156.954 36.766C156.522 36.478 156.174 36.106 155.91 35.65H155.838C155.862 35.974 155.88 36.34 155.892 36.748C155.916 37.156 155.928 37.48 155.928 37.72V39.322C155.928 39.67 155.994 39.928 156.126 40.096C156.27 40.264 156.45 40.372 156.666 40.42C156.882 40.48 157.11 40.51 157.35 40.51H157.494V41.32H152.364ZM158.214 35.992C158.958 35.992 159.486 35.668 159.798 35.02C160.122 34.36 160.284 33.406 160.284 32.158C160.284 30.91 160.122 29.968 159.798 29.332C159.486 28.696 158.958 28.378 158.214 28.378C157.326 28.378 156.72 28.696 156.396 29.332C156.084 29.956 155.928 30.904 155.928 32.176C155.928 33.424 156.084 34.372 156.396 35.02C156.72 35.668 157.326 35.992 158.214 35.992Z" fill="white"/>
</svg>
